<svg width="300" height="450" xmlns="http://www.w3.org/2000/svg">
 <!-- Created with Method Draw - http://github.com/duopixel/Method-Draw/ -->
    <g>
        <title>background</title>
        <rect fill="#fff" id="canvas_background" height="452" width="302" y="-1" x="-1"/>
    </g>
    <g>
        <title>Layer 1</title>
        <line stroke-linecap="null" stroke-linejoin="null" id="svg_1" y2="66.949997" x2="126.75" y1="15.949997" x1="0.75" fill-opacity="0" stroke-opacity="null" stroke-width="1.5" stroke="#000" fill="none"/>
        <rect transform="rotate(21, 21.5, 53.95)" id="svg_10" height="44" width="20" y="31.949997" x="11.5" stroke-opacity="null" stroke-width="1.5" stroke="#000" fill="#62f95d"/>
        <rect transform="rotate(21, 41.5, 61.95)" id="svg_53" height="44" width="20" y="39.949997" x="31.5" stroke-opacity="null" stroke-width="1.5" stroke="#000" fill="#62f95d"/>
        <rect transform="rotate(21, 61.5, 69.95)" id="svg_54" height="44" width="20" y="47.949997" x="51.5" stroke-opacity="null" stroke-width="1.5" stroke="#000" fill="#62f95d"/>
        <rect transform="rotate(21, 81.5, 77.95)" id="svg_55" height="44" width="20" y="55.949997" x="71.5" stroke-opacity="null" stroke-width="1.5" stroke="#000" fill="#62f95d"/>
        <rect transform="rotate(21, 101.5, 85.95)" id="svg_56" height="44" width="20" y="63.949997" x="91.5" stroke-opacity="null" stroke-width="1.5" stroke="#000" fill="#62f95d"/>
        <line stroke-linecap="null" stroke-linejoin="null" id="svg_57" y2="147.949997" x2="126.75" y1="96.949997" x1="0.75" fill-opacity="0" stroke-opacity="null" stroke-width="1.5" stroke="#000" fill="none"/>
        <rect transform="rotate(21, 20.5, 134.95)" id="svg_58" height="44" width="20" y="112.949997" x="10.5" fill-opacity="0" stroke-opacity="null" stroke-width="1.5" stroke="#000" fill="none"/>
        <rect transform="rotate(21, 40.5, 142.95)" id="svg_59" height="44" width="20" y="120.949997" x="30.5" fill-opacity="0" stroke-opacity="null" stroke-width="1.5" stroke="#000" fill="none"/>
        <rect transform="rotate(21, 60.5, 150.95)" id="svg_60" height="44" width="20" y="128.949997" x="50.5" fill-opacity="0" stroke-opacity="null" stroke-width="1.5" stroke="#000" fill="none"/>
        <rect transform="rotate(21, 80.5, 158.95)" id="svg_61" height="44" width="20" y="136.949997" x="70.5" fill-opacity="0" stroke-opacity="null" stroke-width="1.5" stroke="#000" fill="none"/>
        <rect transform="rotate(21, 100.5, 166.95)" id="svg_62" height="44" width="20" y="144.949997" x="90.5" fill-opacity="0" stroke-opacity="null" stroke-width="1.5" stroke="#000" fill="none"/>
        <line stroke-linecap="null" stroke-linejoin="null" id="svg_63" y2="227.949997" x2="126.75" y1="176.949997" x1="0.75" fill-opacity="0" stroke-opacity="null" stroke-width="1.5" stroke="#000" fill="none"/>
        <rect transform="rotate(21, 20.5, 214.95)" id="svg_64" height="44" width="20" y="192.949997" x="10.5" fill-opacity="0" stroke-opacity="null" stroke-width="1.5" stroke="#000" fill="none"/>
        <rect transform="rotate(21, 40.5, 222.95)" id="svg_65" height="44" width="20" y="200.949997" x="30.5" fill-opacity="0" stroke-opacity="null" stroke-width="1.5" stroke="#000" fill="none"/>
        <rect transform="rotate(21, 60.5, 230.95)" id="svg_66" height="44" width="20" y="208.949997" x="50.5" fill-opacity="0" stroke-opacity="null" stroke-width="1.5" stroke="#000" fill="none"/>
        <rect transform="rotate(21, 80.5, 238.95)" id="svg_67" height="44" width="20" y="216.949997" x="70.5" fill-opacity="0" stroke-opacity="null" stroke-width="1.5" stroke="#000" fill="none"/>
        <rect transform="rotate(21, 100.5, 246.95)" id="svg_68" height="44" width="20" y="224.949997" x="90.5" fill-opacity="0" stroke-opacity="null" stroke-width="1.5" stroke="#000" fill="none"/>
        <line stroke-linecap="null" stroke-linejoin="null" id="svg_69" y2="301.949997" x2="126.75" y1="250.949997" x1="0.75" fill-opacity="0" stroke-opacity="null" stroke-width="1.5" stroke="#000" fill="none"/>
        <rect transform="rotate(21, 20.5, 288.95)" id="svg_70" height="44" width="20" y="266.949997" x="10.5" fill-opacity="0" stroke-opacity="null" stroke-width="1.5" stroke="#000" fill="none"/>
        <rect transform="rotate(21, 40.5, 296.95)" id="svg_71" height="44" width="20" y="274.949997" x="30.5" fill-opacity="0" stroke-opacity="null" stroke-width="1.5" stroke="#000" fill="none"/>
        <rect transform="rotate(21, 60.5, 304.95)" id="svg_72" height="44" width="20" y="282.949997" x="50.5" fill-opacity="0" stroke-opacity="null" stroke-width="1.5" stroke="#000" fill="none"/>
        <rect transform="rotate(21, 80.5, 312.95)" id="svg_73" height="44" width="20" y="290.949997" x="70.5" fill-opacity="0" stroke-opacity="null" stroke-width="1.5" stroke="#000" fill="none"/>
        <rect transform="rotate(21, 100.5, 320.95)" id="svg_74" height="44" width="20" y="298.949997" x="90.5" fill-opacity="0" stroke-opacity="null" stroke-width="1.5" stroke="#000" fill="none"/>
        <line stroke-linecap="null" stroke-linejoin="null" id="svg_75" y2="379.949997" x2="126.75" y1="328.949997" x1="0.75" fill-opacity="0" stroke-opacity="null" stroke-width="1.5" stroke="#000" fill="none"/>
        <rect transform="rotate(21, 20.5, 366.95)" id="svg_76" height="44" width="20" y="344.949997" x="10.5" fill-opacity="0" stroke-opacity="null" stroke-width="1.5" stroke="#000" fill="none"/>
        <rect transform="rotate(21, 40.5, 374.95)" id="svg_77" height="44" width="20" y="352.949997" x="30.5" fill-opacity="0" stroke-opacity="null" stroke-width="1.5" stroke="#000" fill="none"/>
        <rect transform="rotate(21, 60.5, 382.95)" id="svg_78" height="44" width="20" y="360.949997" x="50.5" fill-opacity="0" stroke-opacity="null" stroke-width="1.5" stroke="#000" fill="none"/>
        <rect transform="rotate(21, 80.5, 390.95)" id="svg_79" height="44" width="20" y="368.949997" x="70.5" fill-opacity="0" stroke-opacity="null" stroke-width="1.5" stroke="#000" fill="none"/>
        <rect transform="rotate(21, 100.5, 398.95)" id="svg_80" height="44" width="20" y="376.949997" x="90.5" fill-opacity="0" stroke-opacity="null" stroke-width="1.5" stroke="#000" fill="none"/>
        <line transform="rotate(-45, 236.672, 43.45)" stroke-linecap="null" stroke-linejoin="null" id="svg_87" y2="68.949997" x2="299.671875" y1="17.949997" x1="173.671875" fill-opacity="0" stroke-opacity="null" stroke-width="1.5" stroke="#000" fill="none"/>
        <rect transform="rotate(-24, 201.5, 89.95)" id="svg_88" height="44" width="20" y="67.949997" x="191.5" fill-opacity="0" stroke-opacity="null" stroke-width="1.5" stroke="#000" fill="none"/>
        <rect transform="rotate(-24, 220.5, 80.95)" id="svg_89" height="44" width="20" y="58.949997" x="210.5" fill-opacity="0" stroke-opacity="null" stroke-width="1.5" stroke="#000" fill="none"/>
        <rect transform="rotate(-24, 239.5, 72.95)" id="svg_90" height="44" width="20" y="50.949997" x="229.5" fill-opacity="0" stroke-opacity="null" stroke-width="1.5" stroke="#000" fill="none"/>
        <rect transform="rotate(-24, 258.5, 63.95)" id="svg_91" height="44" width="20" y="41.949997" x="248.5" fill-opacity="0" stroke-opacity="null" stroke-width="1.5" stroke="#000" fill="none"/>
        <rect transform="rotate(-24, 277.5, 55.95)" id="svg_92" height="44" width="20" y="33.949997" x="267.5" fill-opacity="0" stroke-opacity="null" stroke-width="1.5" stroke="#000" fill="none"/>
        <line transform="rotate(-45, 236.672, 125.45)" stroke-linecap="null" stroke-linejoin="null" id="svg_93" y2="150.949997" x2="299.671875" y1="99.949997" x1="173.671875" fill-opacity="0" stroke-opacity="null" stroke-width="1.5" stroke="#000" fill="none"/>
        <rect transform="rotate(-24, 203.5, 171.95)" id="svg_94" height="44" width="20" y="149.949997" x="193.5" fill-opacity="0" stroke-opacity="null" stroke-width="1.5" stroke="#000" fill="none"/>
        <rect transform="rotate(-24, 222.5, 162.95)" id="svg_95" height="44" width="20" y="140.949997" x="212.5" fill-opacity="0" stroke-opacity="null" stroke-width="1.5" stroke="#000" fill="none"/>
        <rect transform="rotate(-24, 241.5, 154.95)" id="svg_96" height="44" width="20" y="132.949997" x="231.5" fill-opacity="0" stroke-opacity="null" stroke-width="1.5" stroke="#000" fill="none"/>
        <rect transform="rotate(-24, 260.5, 145.95)" id="svg_97" height="44" width="20" y="123.949997" x="250.5" fill-opacity="0" stroke-opacity="null" stroke-width="1.5" stroke="#000" fill="none"/>
        <rect transform="rotate(-24, 279.5, 137.95)" id="svg_98" height="44" width="20" y="115.949997" x="269.5" fill-opacity="0" stroke-opacity="null" stroke-width="1.5" stroke="#000" fill="none"/>
        <line transform="rotate(-45, 236.672, 206.45)" stroke-linecap="null" stroke-linejoin="null" id="svg_99" y2="231.949997" x2="299.671875" y1="180.949997" x1="173.671875" fill-opacity="0" stroke-opacity="null" stroke-width="1.5" stroke="#000" fill="none"/>
        <rect transform="rotate(-24, 204.5, 252.95)" id="svg_100" height="44" width="20" y="230.949997" x="194.5" fill-opacity="0" stroke-opacity="null" stroke-width="1.5" stroke="#000" fill="none"/>
        <rect transform="rotate(-24, 223.5, 243.95)" id="svg_101" height="44" width="20" y="221.949997" x="213.5" fill-opacity="0" stroke-opacity="null" stroke-width="1.5" stroke="#000" fill="none"/>
        <rect transform="rotate(-24, 242.5, 235.95)" id="svg_102" height="44" width="20" y="213.949997" x="232.5" fill-opacity="0" stroke-opacity="null" stroke-width="1.5" stroke="#000" fill="none"/>
        <rect transform="rotate(-24, 261.5, 226.95)" id="svg_103" height="44" width="20" y="204.949997" x="251.5" fill-opacity="0" stroke-opacity="null" stroke-width="1.5" stroke="#000" fill="none"/>
        <rect transform="rotate(-24, 280.5, 218.95)" id="svg_104" height="44" width="20" y="196.949997" x="270.5" fill-opacity="0" stroke-opacity="null" stroke-width="1.5" stroke="#000" fill="none"/>
        <line transform="rotate(-45, 236.672, 284.45)" stroke-linecap="null" stroke-linejoin="null" id="svg_105" y2="309.949997" x2="299.671875" y1="258.949997" x1="173.671875" fill-opacity="0" stroke-opacity="null" stroke-width="1.5" stroke="#000" fill="none"/>
        <rect transform="rotate(-24, 201.5, 330.95)" id="svg_106" height="44" width="20" y="308.949997" x="191.5" fill-opacity="0" stroke-opacity="null" stroke-width="1.5" stroke="#000" fill="none"/>
        <rect transform="rotate(-24, 220.5, 321.95)" id="svg_107" height="44" width="20" y="299.949997" x="210.5" fill-opacity="0" stroke-opacity="null" stroke-width="1.5" stroke="#000" fill="none"/>
        <rect transform="rotate(-24, 239.5, 313.95)" id="svg_108" height="44" width="20" y="291.949997" x="229.5" fill-opacity="0" stroke-opacity="null" stroke-width="1.5" stroke="#000" fill="none"/>
        <rect transform="rotate(-24, 258.5, 304.95)" id="svg_109" height="44" width="20" y="282.949997" x="248.5" fill-opacity="0" stroke-opacity="null" stroke-width="1.5" stroke="#000" fill="none"/>
        <rect transform="rotate(-24, 277.5, 296.95)" id="svg_110" height="44" width="20" y="274.949997" x="267.5" fill-opacity="0" stroke-opacity="null" stroke-width="1.5" stroke="#000" fill="none"/>
        <line transform="rotate(-45, 236.672, 358.45)" stroke-linecap="null" stroke-linejoin="null" id="svg_111" y2="383.949997" x2="299.671875" y1="332.949997" x1="173.671875" fill-opacity="0" stroke-opacity="null" stroke-width="1.5" stroke="#000" fill="none"/>
        <rect transform="rotate(-24, 201.5, 404.95)" id="svg_112" height="44" width="20" y="382.949997" x="191.5" fill-opacity="0" stroke-opacity="null" stroke-width="1.5" stroke="#000" fill="none"/>
        <rect transform="rotate(-24, 220.5, 395.95)" id="svg_113" height="44" width="20" y="373.949997" x="210.5" fill-opacity="0" stroke-opacity="null" stroke-width="1.5" stroke="#000" fill="none"/>
        <rect transform="rotate(-24, 239.5, 387.95)" id="svg_114" height="44" width="20" y="365.949997" x="229.5" fill-opacity="0" stroke-opacity="null" stroke-width="1.5" stroke="#000" fill="none"/>
        <rect transform="rotate(-24, 258.5, 378.95)" id="svg_115" height="44" width="20" y="356.949997" x="248.5" fill-opacity="0" stroke-opacity="null" stroke-width="1.5" stroke="#000" fill="none"/>
        <rect transform="rotate(-24, 277.5, 370.95)" id="svg_116" height="44" width="20" y="348.949997" x="267.5" fill-opacity="0" stroke-opacity="null" stroke-width="1.5" stroke="#000" fill="none"/>
    </g>
</svg>